<svg xmlns="http://www.w3.org/2000/svg" xmlns:xlink="http://www.w3.org/1999/xlink" viewBox="0 0 750 500">
  <defs>
    <style>
      .cls-5{fill:url(#radial-gradient-2)}
    </style>
    <radialGradient id="radial-gradient" cx="371" cy="399" r="506.32" gradientUnits="userSpaceOnUse">
      <stop offset="0" stop-color="#fafafa" stop-opacity="0"/>
      <stop offset="1" stop-color="#fafafa"/>
    </radialGradient>
    <radialGradient id="radial-gradient-2" cx="371" cy="399" r="506.32" xlink:href="#radial-gradient"/>
    <radialGradient id="radial-gradient-3" cx="371" cy="399" r="506.32" xlink:href="#radial-gradient"/>
    <radialGradient id="radial-gradient-4" cx="371" cy="399" r="506.32" xlink:href="#radial-gradient"/>
    <radialGradient id="radial-gradient-5" cx="371" cy="399" r="506.32" xlink:href="#radial-gradient"/>
    <radialGradient id="radial-gradient-6" cx="371" cy="399" r="506.32" xlink:href="#radial-gradient"/>
    <radialGradient id="radial-gradient-7" cx="371" cy="399" r="506.32" xlink:href="#radial-gradient"/>
    <radialGradient id="radial-gradient-8" cx="371" cy="399" r="506.32" xlink:href="#radial-gradient"/>
    <radialGradient id="radial-gradient-9" cx="371" cy="399" r="506.32" xlink:href="#radial-gradient"/>
    <radialGradient id="radial-gradient-11" cx="371" cy="399" r="506.32" xlink:href="#radial-gradient"/>
    <radialGradient id="radial-gradient-12" cx="371" cy="399" r="506.32" xlink:href="#radial-gradient"/>
    <radialGradient id="radial-gradient-13" cx="371" cy="399" r="506.32" xlink:href="#radial-gradient"/>
    <radialGradient id="radial-gradient-14" cx="371" cy="399" r="506.32" xlink:href="#radial-gradient"/>
    <radialGradient id="radial-gradient-15" cx="371" cy="399" r="506.32" xlink:href="#radial-gradient"/>
    <radialGradient id="radial-gradient-16" cx="371" cy="399" r="506.32" xlink:href="#radial-gradient"/>
    <radialGradient id="radial-gradient-17" cx="371" cy="399" r="506.32" xlink:href="#radial-gradient"/>
    <radialGradient id="radial-gradient-18" cx="371" cy="399" r="506.32" xlink:href="#radial-gradient"/>
    <radialGradient id="radial-gradient-19" cx="371" cy="399" r="506.32" xlink:href="#radial-gradient"/>
    <radialGradient id="radial-gradient-20" cx="371" cy="399" r="506.32" xlink:href="#radial-gradient"/>
    <radialGradient id="radial-gradient-21" cx="371" cy="399" r="506.32" xlink:href="#radial-gradient"/>
    <radialGradient id="radial-gradient-22" cx="371" cy="399" r="506.32" xlink:href="#radial-gradient"/>
    <radialGradient id="radial-gradient-23" cx="371" cy="399" r="506.32" xlink:href="#radial-gradient"/>
    <radialGradient id="radial-gradient-24" cx="371" cy="399" r="506.32" xlink:href="#radial-gradient"/>
    <radialGradient id="radial-gradient-25" cx="371" cy="399" r="506.32" xlink:href="#radial-gradient"/>
    <radialGradient id="radial-gradient-26" cx="371" cy="399" r="506.32" xlink:href="#radial-gradient"/>
    <radialGradient id="radial-gradient-27" cx="371" cy="399" r="506.32" xlink:href="#radial-gradient"/>
  </defs>
  <g style="isolation:isolate">
    <g id="BACKGROUND_2" data-name="BACKGROUND 2">
      <path fill="#e53935" d="M0 0h750v500H0z"/>
      <g style="mix-blend-mode:overlay" opacity=".8">
        <path d="M409 390.53l341-128.35v-52.31L407.36 386.81a34.82 34.82 0 0 1 1.64 3.72z" fill="url(#radial-gradient)"/>
        <path class="cls-5" d="M353.64 432.55L303.75 500h16.08l37.36-65.12a36.78 36.78 0 0 1-3.55-2.33z"/>
        <path d="M360.85 436.7L333.78 500h12.52l18.29-62a33.89 33.89 0 0 1-3.74-1.3z" fill="url(#radial-gradient-3)"/>
        <path d="M347.26 426.57L260.6 500h23.93l65.76-70.25a38.12 38.12 0 0 1-3.03-3.18z" fill="url(#radial-gradient-4)"/>
        <path d="M338.76 403.48L0 405.39v43.69L339 408a39.9 39.9 0 0 1-.24-4.52z" fill="url(#radial-gradient-5)"/>
        <path d="M342.55 419.52L184.5 500h44.64l115.51-76.88a36.06 36.06 0 0 1-2.1-3.6z" fill="url(#radial-gradient-6)"/>
        <path d="M339.68 394.86L0 316.89v44.88l339 37.18a35.82 35.82 0 0 1 .68-4.09z" fill="url(#radial-gradient-7)"/>
        <path d="M358 500h11.46l3.3-60.57a37 37 0 0 1-4.26-.48z" fill="url(#radial-gradient-8)"/>
        <path d="M405.45 423l117.15 77h45.56l-160.61-80.67a36 36 0 0 1-2.1 3.67z" fill="url(#radial-gradient-9)"/>
        <path class="cls-5" d="M399.87 429.61L466.48 500h24.2l-87.81-73.58a38 38 0 0 1-3 3.19z"/>
        <path d="M411.24 403.26a39.67 39.67 0 0 1-.26 4.54l339 39.11V399l-338.77 3.77z" fill="url(#radial-gradient-11)"/>
        <path d="M385.59 438l18.69 62h12.59l-27.53-63.38a34.36 34.36 0 0 1-3.75 1.38z" fill="url(#radial-gradient-12)"/>
        <path d="M409.14 415.63L641.31 500H750v-8.12l-339.72-80.05a33.72 33.72 0 0 1-1.14 3.8z" fill="url(#radial-gradient-13)"/>
        <path d="M377.45 439.42l3.64 60.58h11.46l-10.86-61.08a36.91 36.91 0 0 1-4.24.5z" fill="url(#radial-gradient-14)"/>
        <path d="M393 434.76L430.9 500h16.18l-50.55-67.57a36.59 36.59 0 0 1-3.53 2.33z" fill="url(#radial-gradient-15)"/>
        <path d="M402.6 379.77a37.19 37.19 0 0 1 2.61 3.43L750 150.94V82z" fill="url(#radial-gradient-16)"/>
        <path d="M399.55 376.61L748.15 0h-78.72L396.19 373.84a37.58 37.58 0 0 1 3.36 2.77z" fill="url(#radial-gradient-17)"/>
        <path d="M392.64 371.54L602.94 0H544.6L389 369.74a35.36 35.36 0 0 1 3.64 1.8z" fill="url(#radial-gradient-18)"/>
        <path d="M385.23 368.41L491.68 0H442.3l-61 367.52a34.79 34.79 0 0 1 3.93.89z" fill="url(#radial-gradient-19)"/>
        <path d="M339.76 412L0 494.15V500h113.29l227.64-84.18a34.33 34.33 0 0 1-1.17-3.82z" fill="url(#radial-gradient-20)"/>
        <path d="M410.93 398.31l339.07-43v-45.2l-339.82 84.18a35.09 35.09 0 0 1 .75 4.02z" fill="url(#radial-gradient-21)"/>
        <path d="M342.36 387.36L0 217.85v51.58L340.79 391a34.37 34.37 0 0 1 1.57-3.64z" fill="url(#radial-gradient-22)"/>
        <path d="M348.2 0l24.12 367.11a41.43 41.43 0 0 1 4.7 0L394.9 0z" fill="url(#radial-gradient-23)"/>
        <path d="M347 380.25L0 92.82V160l344.42 223.74a37.85 37.85 0 0 1 2.58-3.49z" fill="url(#radial-gradient-24)"/>
        <path d="M353.31 374.21L70 0H0v11.38L350 377a38.19 38.19 0 0 1 3.31-2.79z" fill="url(#radial-gradient-25)"/>
        <path d="M360.49 370L197.25 0H138l218.84 371.85a35.81 35.81 0 0 1 3.65-1.85z" fill="url(#radial-gradient-26)"/>
        <path d="M368.12 367.63L300.59 0H250.8l113.42 368.58a34.28 34.28 0 0 1 3.9-.95z" fill="url(#radial-gradient-27)"/>
      </g>
    </g>
  </g>
</svg>
